<svg xmlns="http://www.w3.org/2000/svg" xmlns:xlink="http://www.w3.org/1999/xlink" width="204" zoomAndPan="magnify" viewBox="0 0 153 153.000002" height="204" preserveAspectRatio="xMidYMid meet" version="1.0"><defs><g/><clipPath id="35a5a7fa19"><path d="M 3 0.316406 L 101 0.316406 L 101 43 L 3 43 Z M 3 0.316406 " clip-rule="nonzero"/></clipPath><clipPath id="6f611f1be8"><path d="M 93.265625 9.171875 L 123.785156 9.171875 L 123.785156 41.824219 L 93.265625 41.824219 Z M 93.265625 9.171875 " clip-rule="nonzero"/></clipPath><clipPath id="d6536fce65"><path d="M 100.402344 36.367188 L 113.671875 36.367188 L 113.671875 49.191406 L 100.402344 49.191406 Z M 100.402344 36.367188 " clip-rule="nonzero"/></clipPath><clipPath id="30b9bacd6a"><path d="M 37.738281 36.367188 L 51 36.367188 L 51 49.191406 L 37.738281 49.191406 Z M 37.738281 36.367188 " clip-rule="nonzero"/></clipPath><clipPath id="cbe11fb6fb"><path d="M 0.777344 22 L 11 22 L 11 28 L 0.777344 28 Z M 0.777344 22 " clip-rule="nonzero"/></clipPath><clipPath id="0576e6dbdf"><rect x="0" width="42" y="0" height="28"/></clipPath><clipPath id="4f8c5c59e4"><rect x="0" width="124" y="0" height="50"/></clipPath></defs><g transform="matrix(1, 0, 0, 1, 14, 51)"><g clip-path="url(#4f8c5c59e4)"><g clip-path="url(#35a5a7fa19)"><path fill="#f5ba53" d="M 100.117188 2.964844 L 92.261719 39.902344 C 91.945312 41.398438 90.46875 42.617188 88.976562 42.617188 L 52.828125 42.617188 C 52.34375 42.617188 52.007812 42.242188 52.070312 41.757812 C 52.566406 37.964844 49.964844 34.988281 46.148438 34.988281 C 42.339844 34.988281 38.476562 37.957031 37.351562 41.746094 C 37.210938 42.230469 36.710938 42.617188 36.214844 42.617188 L 31.742188 42.617188 C 30.242188 42.617188 29.28125 41.398438 29.597656 39.902344 L 30.214844 37.015625 L 5.476562 37.015625 C 4.132812 37.015625 3.042969 35.925781 3.042969 34.582031 C 3.042969 33.238281 4.132812 32.144531 5.476562 32.144531 L 37.53125 32.144531 C 38.878906 32.144531 39.96875 31.054688 39.96875 29.710938 C 39.96875 28.367188 38.878906 27.277344 37.53125 27.277344 L 19.636719 27.277344 C 18.292969 27.277344 17.199219 26.183594 17.199219 24.839844 C 17.199219 23.496094 18.292969 22.40625 19.636719 22.40625 L 39.601562 22.40625 C 40.945312 22.40625 42.039062 21.316406 42.039062 19.972656 C 42.039062 18.625 40.945312 17.535156 39.601562 17.535156 L 11.34375 17.535156 C 9.996094 17.535156 8.90625 16.445312 8.90625 15.101562 C 8.90625 13.757812 9.996094 12.667969 11.34375 12.667969 L 41.671875 12.667969 C 43.015625 12.667969 44.109375 11.574219 44.109375 10.230469 C 44.109375 8.886719 43.015625 7.796875 41.671875 7.796875 L 19.636719 7.796875 C 18.292969 7.796875 17.199219 6.703125 17.199219 5.359375 C 17.199219 4.015625 18.292969 2.925781 19.636719 2.925781 L 37.464844 2.925781 C 37.796875 1.445312 39.265625 0.246094 40.746094 0.246094 L 97.976562 0.246094 C 99.476562 0.246094 100.433594 1.464844 100.117188 2.964844 " fill-opacity="1" fill-rule="nonzero"/></g><g clip-path="url(#6f611f1be8)"><path fill="#f5ba53" d="M 122.640625 23.5 L 121.464844 22.375 C 121.257812 22.179688 121.070312 21.949219 120.914062 21.6875 L 114.007812 10.34375 C 113.558594 9.605469 112.746094 9.179688 111.785156 9.179688 L 101.066406 9.179688 C 100.4375 9.179688 99.820312 9.6875 99.6875 10.3125 L 93.320312 40.285156 C 93.140625 41.125 93.679688 41.808594 94.519531 41.808594 L 99.992188 41.808594 L 100.0625 41.589844 C 101.257812 37.828125 105.019531 34.988281 108.808594 34.988281 C 112.601562 34.988281 115.15625 37.828125 114.753906 41.589844 L 114.730469 41.808594 L 117.394531 41.808594 C 119.15625 41.808594 120.898438 40.371094 121.273438 38.609375 L 123.671875 27.316406 C 123.992188 25.820312 123.613281 24.429688 122.640625 23.5 " fill-opacity="1" fill-rule="nonzero"/></g><g clip-path="url(#d6536fce65)"><path fill="#f5ba53" d="M 106.355469 46.105469 C 104.566406 46.105469 103.421875 44.648438 103.800781 42.859375 C 104.179688 41.070312 105.945312 39.617188 107.734375 39.617188 C 109.523438 39.617188 110.667969 41.070312 110.289062 42.859375 C 109.90625 44.648438 108.144531 46.105469 106.355469 46.105469 Z M 108.421875 36.386719 C 104.851562 36.386719 101.328125 39.289062 100.570312 42.859375 C 99.8125 46.429688 102.097656 49.335938 105.667969 49.335938 C 109.238281 49.335938 112.757812 46.429688 113.519531 42.859375 C 114.277344 39.289062 111.992188 36.386719 108.421875 36.386719 " fill-opacity="1" fill-rule="nonzero"/></g><g clip-path="url(#30b9bacd6a)"><path fill="#f5ba53" d="M 43.691406 46.105469 C 41.90625 46.105469 40.757812 44.648438 41.140625 42.859375 C 41.519531 41.070312 43.28125 39.617188 45.070312 39.617188 C 46.859375 39.617188 48.003906 41.070312 47.625 42.859375 C 47.246094 44.648438 45.480469 46.105469 43.691406 46.105469 Z M 45.757812 36.386719 C 42.1875 36.386719 38.667969 39.289062 37.90625 42.859375 C 37.148438 46.429688 39.4375 49.335938 43.007812 49.335938 C 46.574219 49.335938 50.097656 46.429688 50.855469 42.859375 C 51.617188 39.289062 49.328125 36.386719 45.757812 36.386719 " fill-opacity="1" fill-rule="nonzero"/></g><path fill="#1e7dbb" d="M 110.359375 12.097656 L 104.113281 12.097656 C 103.074219 12.097656 102.050781 12.941406 101.832031 13.980469 L 100.113281 22.070312 C 99.890625 23.109375 100.554688 23.949219 101.59375 23.949219 L 113.15625 23.949219 C 114.652344 23.949219 115.902344 22.289062 115.347656 21.035156 L 111.75 12.945312 C 111.515625 12.417969 110.992188 12.097656 110.359375 12.097656 " fill-opacity="1" fill-rule="nonzero"/><path fill="#f5ba53" d="M 13.539062 5.359375 C 13.539062 6.703125 12.449219 7.796875 11.101562 7.796875 L 6.609375 7.796875 C 5.265625 7.796875 4.171875 6.703125 4.171875 5.359375 C 4.171875 4.015625 5.265625 2.925781 6.609375 2.925781 L 11.101562 2.925781 C 12.449219 2.925781 13.539062 4.015625 13.539062 5.359375 " fill-opacity="1" fill-rule="nonzero"/><g clip-path="url(#cbe11fb6fb)"><path fill="#f5ba53" d="M 10.164062 24.839844 C 10.164062 26.183594 9.074219 27.277344 7.726562 27.277344 L 3.226562 27.277344 C 1.882812 27.277344 0.792969 26.183594 0.792969 24.839844 C 0.792969 23.496094 1.882812 22.40625 3.226562 22.40625 L 7.726562 22.40625 C 9.074219 22.40625 10.164062 23.496094 10.164062 24.839844 " fill-opacity="1" fill-rule="nonzero"/></g><g transform="matrix(1, 0, 0, 1, 48, 7)"><g clip-path="url(#0576e6dbdf)"><g fill="#3b435f" fill-opacity="1"><g transform="translate(3.10614, 9.687413)"><g><path d="M 0.734375 0.09375 C 0.492188 0.09375 0.375 0.0234375 0.375 -0.109375 C 0.375 -0.253906 0.453125 -0.328125 0.609375 -0.328125 C 0.859375 -0.328125 1.03125 -0.363281 1.125 -0.4375 C 1.320312 -0.570312 1.4375 -0.8125 1.46875 -1.15625 C 1.476562 -1.238281 1.488281 -1.363281 1.5 -1.53125 C 1.507812 -1.695312 1.519531 -1.890625 1.53125 -2.109375 C 1.539062 -2.328125 1.550781 -2.566406 1.5625 -2.828125 C 1.570312 -3.097656 1.582031 -3.375 1.59375 -3.65625 C 1.613281 -3.9375 1.628906 -4.21875 1.640625 -4.5 C 1.648438 -4.78125 1.660156 -5.050781 1.671875 -5.3125 C 1.691406 -5.957031 1.703125 -6.363281 1.703125 -6.53125 C 1.703125 -6.695312 1.6875 -6.828125 1.65625 -6.921875 C 1.632812 -7.015625 1.601562 -7.09375 1.5625 -7.15625 C 1.476562 -7.257812 1.34375 -7.328125 1.15625 -7.359375 C 0.820312 -7.398438 0.65625 -7.472656 0.65625 -7.578125 C 0.65625 -7.640625 0.675781 -7.691406 0.71875 -7.734375 C 0.769531 -7.773438 0.832031 -7.796875 0.90625 -7.796875 L 1.8125 -7.703125 L 2.328125 -7.734375 C 2.410156 -7.734375 2.484375 -7.691406 2.546875 -7.609375 C 2.609375 -7.535156 2.675781 -7.421875 2.75 -7.265625 L 5.53125 -1.5 C 5.601562 -1.65625 5.691406 -1.851562 5.796875 -2.09375 C 5.898438 -2.34375 6.015625 -2.613281 6.140625 -2.90625 C 6.273438 -3.207031 6.414062 -3.523438 6.5625 -3.859375 C 6.707031 -4.191406 6.847656 -4.519531 6.984375 -4.84375 C 7.128906 -5.175781 7.265625 -5.492188 7.390625 -5.796875 C 7.523438 -6.097656 7.640625 -6.367188 7.734375 -6.609375 C 7.835938 -6.847656 7.921875 -7.039062 7.984375 -7.1875 C 8.054688 -7.332031 8.101562 -7.4375 8.125 -7.5 C 8.144531 -7.5625 8.191406 -7.617188 8.265625 -7.671875 C 8.335938 -7.734375 8.425781 -7.765625 8.53125 -7.765625 L 9.078125 -7.734375 L 9.765625 -7.796875 C 10.046875 -7.796875 10.1875 -7.722656 10.1875 -7.578125 C 10.1875 -7.503906 10.125 -7.457031 10 -7.4375 C 9.875 -7.414062 9.765625 -7.394531 9.671875 -7.375 C 9.585938 -7.351562 9.507812 -7.320312 9.4375 -7.28125 C 9.257812 -7.1875 9.171875 -7.03125 9.171875 -6.8125 L 9.46875 -1.1875 C 9.5 -0.6875 9.679688 -0.40625 10.015625 -0.34375 C 10.109375 -0.332031 10.203125 -0.328125 10.296875 -0.328125 C 10.460938 -0.328125 10.546875 -0.253906 10.546875 -0.109375 C 10.546875 0.0234375 10.425781 0.09375 10.1875 0.09375 C 10.09375 0.09375 10.007812 0.0859375 9.9375 0.078125 C 9.863281 0.0664062 9.796875 0.0546875 9.734375 0.046875 C 9.523438 0.015625 9.335938 0 9.171875 0 L 7.9375 0.09375 C 7.695312 0.09375 7.578125 0.0195312 7.578125 -0.125 C 7.578125 -0.238281 7.664062 -0.296875 7.84375 -0.296875 C 8.019531 -0.296875 8.148438 -0.3125 8.234375 -0.34375 C 8.316406 -0.375 8.378906 -0.421875 8.421875 -0.484375 C 8.472656 -0.578125 8.5 -0.789062 8.5 -1.125 L 8.5 -1.671875 C 8.5 -1.929688 8.476562 -2.457031 8.4375 -3.25 C 8.394531 -4.050781 8.367188 -4.625 8.359375 -4.96875 C 8.328125 -5.6875 8.296875 -6.226562 8.265625 -6.59375 L 5.5625 -0.375 C 5.457031 -0.144531 5.363281 -0.03125 5.28125 -0.03125 C 5.226562 -0.03125 5.179688 -0.0546875 5.140625 -0.109375 C 5.109375 -0.171875 5.0625 -0.265625 5 -0.390625 L 2.21875 -6.109375 C 2.070312 -4.160156 2 -2.378906 2 -0.765625 C 2 -0.453125 2.253906 -0.296875 2.765625 -0.296875 C 2.898438 -0.296875 2.96875 -0.238281 2.96875 -0.125 C 2.96875 0.0195312 2.847656 0.09375 2.609375 0.09375 L 1.671875 0 C 1.472656 0 1.285156 0.015625 1.109375 0.046875 C 0.941406 0.078125 0.816406 0.09375 0.734375 0.09375 Z M 8.4375 -7 L 8.453125 -7 Z M 8.4375 -7 "/></g></g></g><g fill="#3b435f" fill-opacity="1"><g transform="translate(14.021027, 9.687413)"><g><path d="M 5.703125 -0.765625 C 5.804688 -0.765625 5.859375 -0.710938 5.859375 -0.609375 C 5.859375 -0.515625 5.75 -0.421875 5.53125 -0.328125 C 5.3125 -0.234375 5.15625 -0.148438 5.0625 -0.078125 C 4.976562 -0.00390625 4.914062 0.046875 4.875 0.078125 C 4.832031 0.117188 4.78125 0.140625 4.71875 0.140625 C 4.601562 0.140625 4.503906 0.09375 4.421875 0 C 4.347656 -0.09375 4.25 -0.296875 4.125 -0.609375 C 3.90625 -0.359375 3.640625 -0.171875 3.328125 -0.046875 C 3.015625 0.078125 2.707031 0.140625 2.40625 0.140625 C 1.820312 0.140625 1.367188 -0.00390625 1.046875 -0.296875 C 0.734375 -0.585938 0.578125 -0.988281 0.578125 -1.5 C 0.578125 -2.019531 0.816406 -2.4375 1.296875 -2.75 C 1.773438 -3.070312 2.390625 -3.234375 3.140625 -3.234375 C 3.359375 -3.234375 3.648438 -3.195312 4.015625 -3.125 L 4.015625 -3.578125 C 4.015625 -4.554688 3.601562 -5.046875 2.78125 -5.046875 C 2.332031 -5.046875 2.003906 -4.84375 1.796875 -4.4375 C 1.617188 -4.070312 1.445312 -3.890625 1.28125 -3.890625 C 1.144531 -3.890625 1.03125 -3.925781 0.9375 -4 C 0.84375 -4.070312 0.796875 -4.164062 0.796875 -4.28125 C 0.796875 -4.394531 0.851562 -4.519531 0.96875 -4.65625 C 1.09375 -4.789062 1.25 -4.910156 1.4375 -5.015625 C 1.882812 -5.285156 2.378906 -5.421875 2.921875 -5.421875 C 3.878906 -5.421875 4.5 -5.109375 4.78125 -4.484375 C 4.882812 -4.253906 4.9375 -3.984375 4.9375 -3.671875 L 4.9375 -1.375 C 4.9375 -1.082031 4.960938 -0.890625 5.015625 -0.796875 C 5.078125 -0.710938 5.160156 -0.671875 5.265625 -0.671875 C 5.367188 -0.671875 5.453125 -0.6875 5.515625 -0.71875 C 5.578125 -0.75 5.640625 -0.765625 5.703125 -0.765625 Z M 4.015625 -2.59375 C 3.742188 -2.75 3.394531 -2.828125 2.96875 -2.828125 C 2.550781 -2.828125 2.210938 -2.71875 1.953125 -2.5 C 1.703125 -2.289062 1.578125 -2.007812 1.578125 -1.65625 C 1.578125 -1.300781 1.675781 -1.003906 1.875 -0.765625 C 2.070312 -0.535156 2.320312 -0.421875 2.625 -0.421875 C 3.28125 -0.421875 3.75 -0.632812 4.03125 -1.0625 C 4.019531 -1.175781 4.015625 -1.296875 4.015625 -1.421875 Z M 4.015625 -2.59375 "/></g></g></g><g fill="#3b435f" fill-opacity="1"><g transform="translate(19.95216, 9.687413)"><g><path d="M 0.6875 0.09375 C 0.4375 0.09375 0.3125 0.0195312 0.3125 -0.125 C 0.3125 -0.238281 0.382812 -0.296875 0.53125 -0.296875 L 0.828125 -0.265625 C 0.921875 -0.265625 0.992188 -0.28125 1.046875 -0.3125 C 1.109375 -0.34375 1.15625 -0.410156 1.1875 -0.515625 C 1.25 -0.710938 1.28125 -1.148438 1.28125 -1.828125 L 1.28125 -3.53125 C 1.28125 -3.925781 1.253906 -4.171875 1.203125 -4.265625 C 1.148438 -4.359375 1.085938 -4.421875 1.015625 -4.453125 C 0.941406 -4.492188 0.828125 -4.523438 0.671875 -4.546875 C 0.515625 -4.578125 0.4375 -4.640625 0.4375 -4.734375 C 0.4375 -4.828125 0.535156 -4.890625 0.734375 -4.921875 C 1.222656 -5.023438 1.550781 -5.125 1.71875 -5.21875 C 1.945312 -5.351562 2.101562 -5.421875 2.1875 -5.421875 C 2.28125 -5.421875 2.328125 -5.375 2.328125 -5.28125 C 2.328125 -5.238281 2.316406 -5.195312 2.296875 -5.15625 C 2.222656 -4.96875 2.179688 -4.671875 2.171875 -4.265625 C 2.390625 -4.628906 2.660156 -4.910156 2.984375 -5.109375 C 3.316406 -5.316406 3.640625 -5.421875 3.953125 -5.421875 C 4.273438 -5.421875 4.546875 -5.378906 4.765625 -5.296875 C 4.992188 -5.210938 5.1875 -5.085938 5.34375 -4.921875 C 5.664062 -4.578125 5.828125 -4.070312 5.828125 -3.40625 L 5.828125 -1.828125 C 5.828125 -1.148438 5.847656 -0.734375 5.890625 -0.578125 C 5.941406 -0.429688 5.992188 -0.34375 6.046875 -0.3125 C 6.109375 -0.28125 6.179688 -0.265625 6.265625 -0.265625 L 6.5625 -0.296875 C 6.707031 -0.296875 6.78125 -0.238281 6.78125 -0.125 C 6.78125 0.0195312 6.648438 0.09375 6.390625 0.09375 C 6.242188 0.09375 6.085938 0.078125 5.921875 0.046875 C 5.753906 0.015625 5.570312 0 5.375 0 C 5.1875 0 5.003906 0.015625 4.828125 0.046875 C 4.660156 0.078125 4.503906 0.09375 4.359375 0.09375 C 4.097656 0.09375 3.96875 0.0195312 3.96875 -0.125 C 3.96875 -0.238281 4.039062 -0.296875 4.1875 -0.296875 L 4.484375 -0.265625 C 4.578125 -0.265625 4.648438 -0.28125 4.703125 -0.3125 C 4.765625 -0.34375 4.8125 -0.410156 4.84375 -0.515625 C 4.90625 -0.710938 4.9375 -1.148438 4.9375 -1.828125 L 4.9375 -3.125 C 4.9375 -4.226562 4.535156 -4.78125 3.734375 -4.78125 C 3.171875 -4.78125 2.734375 -4.523438 2.421875 -4.015625 C 2.304688 -3.828125 2.222656 -3.597656 2.171875 -3.328125 L 2.171875 -1.828125 C 2.171875 -1.148438 2.191406 -0.734375 2.234375 -0.578125 C 2.273438 -0.429688 2.320312 -0.34375 2.375 -0.3125 C 2.4375 -0.28125 2.515625 -0.265625 2.609375 -0.265625 L 2.90625 -0.296875 C 3.050781 -0.296875 3.125 -0.238281 3.125 -0.125 C 3.125 0.0195312 3 0.09375 2.75 0.09375 C 2.601562 0.09375 2.445312 0.078125 2.28125 0.046875 C 2.125 0.015625 1.941406 0 1.734375 0 C 1.535156 0 1.347656 0.015625 1.171875 0.046875 C 1.003906 0.078125 0.84375 0.09375 0.6875 0.09375 Z M 0.6875 0.09375 "/></g></g></g><g fill="#3b435f" fill-opacity="1"><g transform="translate(26.824923, 9.687413)"><g><path d="M 0.6875 0.09375 C 0.4375 0.09375 0.3125 0.0195312 0.3125 -0.125 C 0.3125 -0.238281 0.382812 -0.296875 0.53125 -0.296875 L 0.828125 -0.265625 C 0.921875 -0.265625 0.992188 -0.28125 1.046875 -0.3125 C 1.109375 -0.34375 1.15625 -0.410156 1.1875 -0.515625 C 1.25 -0.710938 1.28125 -1.148438 1.28125 -1.828125 L 1.28125 -3.53125 C 1.28125 -3.925781 1.253906 -4.171875 1.203125 -4.265625 C 1.148438 -4.359375 1.085938 -4.421875 1.015625 -4.453125 C 0.941406 -4.492188 0.828125 -4.523438 0.671875 -4.546875 C 0.515625 -4.578125 0.4375 -4.640625 0.4375 -4.734375 C 0.4375 -4.828125 0.535156 -4.890625 0.734375 -4.921875 C 1.222656 -5.023438 1.550781 -5.125 1.71875 -5.21875 C 1.945312 -5.351562 2.101562 -5.421875 2.1875 -5.421875 C 2.28125 -5.421875 2.328125 -5.375 2.328125 -5.28125 C 2.328125 -5.238281 2.316406 -5.195312 2.296875 -5.15625 C 2.222656 -4.96875 2.179688 -4.671875 2.171875 -4.265625 C 2.390625 -4.628906 2.660156 -4.910156 2.984375 -5.109375 C 3.316406 -5.316406 3.640625 -5.421875 3.953125 -5.421875 C 4.273438 -5.421875 4.546875 -5.378906 4.765625 -5.296875 C 4.992188 -5.210938 5.1875 -5.085938 5.34375 -4.921875 C 5.664062 -4.578125 5.828125 -4.070312 5.828125 -3.40625 L 5.828125 -1.828125 C 5.828125 -1.148438 5.847656 -0.734375 5.890625 -0.578125 C 5.941406 -0.429688 5.992188 -0.34375 6.046875 -0.3125 C 6.109375 -0.28125 6.179688 -0.265625 6.265625 -0.265625 L 6.5625 -0.296875 C 6.707031 -0.296875 6.78125 -0.238281 6.78125 -0.125 C 6.78125 0.0195312 6.648438 0.09375 6.390625 0.09375 C 6.242188 0.09375 6.085938 0.078125 5.921875 0.046875 C 5.753906 0.015625 5.570312 0 5.375 0 C 5.1875 0 5.003906 0.015625 4.828125 0.046875 C 4.660156 0.078125 4.503906 0.09375 4.359375 0.09375 C 4.097656 0.09375 3.96875 0.0195312 3.96875 -0.125 C 3.96875 -0.238281 4.039062 -0.296875 4.1875 -0.296875 L 4.484375 -0.265625 C 4.578125 -0.265625 4.648438 -0.28125 4.703125 -0.3125 C 4.765625 -0.34375 4.8125 -0.410156 4.84375 -0.515625 C 4.90625 -0.710938 4.9375 -1.148438 4.9375 -1.828125 L 4.9375 -3.125 C 4.9375 -4.226562 4.535156 -4.78125 3.734375 -4.78125 C 3.171875 -4.78125 2.734375 -4.523438 2.421875 -4.015625 C 2.304688 -3.828125 2.222656 -3.597656 2.171875 -3.328125 L 2.171875 -1.828125 C 2.171875 -1.148438 2.191406 -0.734375 2.234375 -0.578125 C 2.273438 -0.429688 2.320312 -0.34375 2.375 -0.3125 C 2.4375 -0.28125 2.515625 -0.265625 2.609375 -0.265625 L 2.90625 -0.296875 C 3.050781 -0.296875 3.125 -0.238281 3.125 -0.125 C 3.125 0.0195312 3 0.09375 2.75 0.09375 C 2.601562 0.09375 2.445312 0.078125 2.28125 0.046875 C 2.125 0.015625 1.941406 0 1.734375 0 C 1.535156 0 1.347656 0.015625 1.171875 0.046875 C 1.003906 0.078125 0.84375 0.09375 0.6875 0.09375 Z M 0.6875 0.09375 "/></g></g></g><g fill="#3b435f" fill-opacity="1"><g transform="translate(33.697686, 9.687413)"><g><path d="M 5.515625 -5.375 C 5.671875 -5.375 5.75 -5.328125 5.75 -5.234375 C 5.75 -5.148438 5.675781 -5.082031 5.53125 -5.03125 C 5.394531 -4.976562 5.285156 -4.925781 5.203125 -4.875 C 5.128906 -4.832031 5.0625 -4.773438 5 -4.703125 C 4.863281 -4.535156 4.722656 -4.25 4.578125 -3.84375 L 3.71875 -1.5 C 2.976562 0.507812 2.441406 1.722656 2.109375 2.140625 C 1.785156 2.546875 1.398438 2.75 0.953125 2.75 C 0.640625 2.75 0.414062 2.707031 0.28125 2.625 C 0.0507812 2.476562 -0.0625 2.332031 -0.0625 2.1875 C -0.0625 2.070312 -0.0234375 1.984375 0.046875 1.921875 C 0.171875 1.796875 0.285156 1.734375 0.390625 1.734375 C 0.492188 1.734375 0.585938 1.75 0.671875 1.78125 C 0.753906 1.820312 0.832031 1.863281 0.90625 1.90625 C 0.976562 1.957031 1.046875 2 1.109375 2.03125 C 1.171875 2.070312 1.222656 2.09375 1.265625 2.09375 C 1.316406 2.09375 1.367188 2.085938 1.421875 2.078125 C 1.484375 2.066406 1.546875 2.039062 1.609375 2 C 1.679688 1.957031 1.753906 1.890625 1.828125 1.796875 C 1.898438 1.703125 1.984375 1.570312 2.078125 1.40625 C 2.285156 1.039062 2.515625 0.519531 2.765625 -0.15625 C 2.597656 -0.28125 2.335938 -0.722656 1.984375 -1.484375 L 0.71875 -4.296875 C 0.601562 -4.546875 0.515625 -4.703125 0.453125 -4.765625 C 0.347656 -4.890625 0.210938 -4.972656 0.046875 -5.015625 C -0.117188 -5.054688 -0.203125 -5.128906 -0.203125 -5.234375 C -0.203125 -5.265625 -0.179688 -5.296875 -0.140625 -5.328125 C -0.0976562 -5.359375 -0.0390625 -5.375 0.03125 -5.375 L 0.921875 -5.3125 C 1.160156 -5.3125 1.335938 -5.316406 1.453125 -5.328125 C 1.660156 -5.359375 1.828125 -5.375 1.953125 -5.375 C 2.210938 -5.375 2.34375 -5.316406 2.34375 -5.203125 C 2.34375 -5.085938 2.191406 -5.023438 1.890625 -5.015625 C 1.691406 -5.003906 1.578125 -4.953125 1.546875 -4.859375 C 1.546875 -4.828125 1.546875 -4.796875 1.546875 -4.765625 C 1.546875 -4.710938 1.601562 -4.5625 1.71875 -4.3125 L 3.109375 -1.15625 C 3.117188 -1.15625 3.125 -1.15625 3.125 -1.15625 C 3.125 -1.164062 3.125 -1.175781 3.125 -1.1875 L 4.109375 -4.0625 C 4.160156 -4.238281 4.207031 -4.382812 4.25 -4.5 C 4.289062 -4.613281 4.3125 -4.707031 4.3125 -4.78125 C 4.3125 -4.863281 4.28125 -4.921875 4.21875 -4.953125 C 4.164062 -4.984375 4.066406 -5.003906 3.921875 -5.015625 C 3.628906 -5.035156 3.484375 -5.097656 3.484375 -5.203125 C 3.484375 -5.316406 3.613281 -5.375 3.875 -5.375 L 4.859375 -5.3125 Z M 5.515625 -5.375 "/></g></g></g><g fill="#3b435f" fill-opacity="1"><g transform="translate(1.348164, 23.688716)"><g><path d="M 0.6875 0.09375 C 0.476562 0.09375 0.375 0.0195312 0.375 -0.125 C 0.375 -0.238281 0.441406 -0.296875 0.578125 -0.296875 L 0.859375 -0.265625 C 1.078125 -0.265625 1.222656 -0.359375 1.296875 -0.546875 C 1.378906 -0.753906 1.421875 -1.171875 1.421875 -1.796875 L 1.421875 -5.875 C 1.421875 -6.5 1.390625 -6.894531 1.328125 -7.0625 C 1.273438 -7.226562 1.210938 -7.332031 1.140625 -7.375 C 1.066406 -7.414062 0.972656 -7.4375 0.859375 -7.4375 L 0.578125 -7.40625 C 0.441406 -7.40625 0.375 -7.460938 0.375 -7.578125 C 0.375 -7.722656 0.472656 -7.796875 0.671875 -7.796875 C 0.878906 -7.796875 1.050781 -7.789062 1.1875 -7.78125 C 1.320312 -7.769531 1.453125 -7.757812 1.578125 -7.75 C 1.941406 -7.71875 2.222656 -7.703125 2.421875 -7.703125 C 2.628906 -7.703125 2.847656 -7.707031 3.078125 -7.71875 C 3.304688 -7.726562 3.5625 -7.738281 3.84375 -7.75 C 4.59375 -7.78125 5.113281 -7.796875 5.40625 -7.796875 C 5.695312 -7.796875 5.859375 -7.773438 5.890625 -7.734375 C 5.921875 -7.703125 5.9375 -7.65625 5.9375 -7.59375 C 5.9375 -7.539062 5.929688 -7.484375 5.921875 -7.421875 C 5.921875 -7.367188 5.921875 -7.3125 5.921875 -7.25 C 5.921875 -7.164062 5.910156 -7.035156 5.890625 -6.859375 C 5.867188 -6.679688 5.84375 -6.5625 5.8125 -6.5 C 5.789062 -6.445312 5.753906 -6.421875 5.703125 -6.421875 C 5.648438 -6.421875 5.613281 -6.429688 5.59375 -6.453125 C 5.582031 -6.472656 5.554688 -6.53125 5.515625 -6.625 C 5.484375 -6.71875 5.425781 -6.804688 5.34375 -6.890625 C 5.269531 -6.972656 5.144531 -7.039062 4.96875 -7.09375 C 4.625 -7.195312 3.984375 -7.25 3.046875 -7.25 L 2.546875 -7.25 C 2.453125 -7.25 2.390625 -7.234375 2.359375 -7.203125 C 2.335938 -7.171875 2.328125 -7.109375 2.328125 -7.015625 L 2.328125 -4.609375 C 2.785156 -4.546875 3.160156 -4.515625 3.453125 -4.515625 C 3.753906 -4.515625 3.96875 -4.515625 4.09375 -4.515625 C 4.226562 -4.523438 4.335938 -4.539062 4.421875 -4.5625 C 4.566406 -4.59375 4.675781 -4.660156 4.75 -4.765625 C 4.875 -4.960938 4.976562 -5.0625 5.0625 -5.0625 C 5.164062 -5.0625 5.21875 -5.007812 5.21875 -4.90625 L 5.015625 -4.09375 L 5.03125 -3.65625 C 5.03125 -3.375 4.96875 -3.234375 4.84375 -3.234375 C 4.726562 -3.234375 4.671875 -3.304688 4.671875 -3.453125 C 4.671875 -3.609375 4.660156 -3.722656 4.640625 -3.796875 C 4.628906 -3.867188 4.582031 -3.925781 4.5 -3.96875 C 4.375 -4.03125 4.070312 -4.0625 3.59375 -4.0625 C 3.125 -4.0625 2.703125 -4.039062 2.328125 -4 L 2.328125 -2.625 C 2.328125 -1.78125 2.347656 -1.082031 2.390625 -0.53125 C 2.691406 -0.46875 3.023438 -0.4375 3.390625 -0.4375 C 3.753906 -0.4375 4.066406 -0.441406 4.328125 -0.453125 C 4.585938 -0.472656 4.8125 -0.515625 5 -0.578125 C 5.375 -0.679688 5.644531 -0.894531 5.8125 -1.21875 C 5.894531 -1.351562 5.972656 -1.421875 6.046875 -1.421875 C 6.128906 -1.421875 6.171875 -1.363281 6.171875 -1.25 C 6.171875 -1.207031 6.15625 -1.148438 6.125 -1.078125 C 6.09375 -0.972656 6.046875 -0.820312 5.984375 -0.625 C 5.929688 -0.425781 5.890625 -0.28125 5.859375 -0.1875 C 5.828125 -0.101562 5.789062 -0.0390625 5.75 0 C 5.695312 0.0703125 5.585938 0.109375 5.421875 0.109375 C 5.253906 0.109375 5.085938 0.109375 4.921875 0.109375 C 4.765625 0.109375 4.601562 0.109375 4.4375 0.109375 C 4.238281 0.0976562 3.929688 0.0820312 3.515625 0.0625 C 2.472656 0.0078125 1.859375 -0.0078125 1.671875 0 C 1.492188 0.0195312 1.359375 0.0351562 1.265625 0.046875 C 1.171875 0.0546875 1.082031 0.0664062 1 0.078125 C 0.914062 0.0859375 0.8125 0.09375 0.6875 0.09375 Z M 0.6875 0.09375 "/></g></g></g><g fill="#3b435f" fill-opacity="1"><g transform="translate(7.968294, 23.688716)"><g><path d="M 0.34375 0.09375 C 0.1875 0.09375 0.109375 0.0390625 0.109375 -0.0625 C 0.109375 -0.132812 0.179688 -0.195312 0.328125 -0.25 C 0.472656 -0.300781 0.585938 -0.359375 0.671875 -0.421875 C 0.753906 -0.484375 0.84375 -0.554688 0.9375 -0.640625 C 1.03125 -0.734375 1.132812 -0.84375 1.25 -0.96875 C 1.363281 -1.101562 1.5 -1.257812 1.65625 -1.4375 L 2.546875 -2.578125 L 1.265625 -4.265625 C 0.953125 -4.660156 0.632812 -4.90625 0.3125 -5 C 0.144531 -5.039062 0.0625 -5.109375 0.0625 -5.203125 C 0.0625 -5.242188 0.0820312 -5.273438 0.125 -5.296875 C 0.164062 -5.328125 0.222656 -5.34375 0.296875 -5.34375 L 1.296875 -5.28125 L 2.171875 -5.34375 C 2.429688 -5.34375 2.5625 -5.289062 2.5625 -5.1875 C 2.5625 -5.113281 2.53125 -5.066406 2.46875 -5.046875 C 2.40625 -5.023438 2.335938 -5.003906 2.265625 -4.984375 C 2.191406 -4.972656 2.125 -4.957031 2.0625 -4.9375 C 2 -4.914062 1.96875 -4.875 1.96875 -4.8125 C 1.96875 -4.726562 2.070312 -4.554688 2.28125 -4.296875 L 3.125 -3.171875 L 3.84375 -4.0625 C 4.132812 -4.445312 4.28125 -4.6875 4.28125 -4.78125 C 4.28125 -4.875 4.25 -4.929688 4.1875 -4.953125 C 4.132812 -4.984375 4.070312 -5.003906 4 -5.015625 C 3.925781 -5.035156 3.859375 -5.054688 3.796875 -5.078125 C 3.734375 -5.109375 3.703125 -5.148438 3.703125 -5.203125 C 3.703125 -5.316406 3.8125 -5.375 4.03125 -5.375 L 4.953125 -5.3125 L 5.5625 -5.375 C 5.71875 -5.375 5.796875 -5.328125 5.796875 -5.234375 C 5.796875 -5.148438 5.722656 -5.082031 5.578125 -5.03125 C 5.429688 -4.976562 5.3125 -4.921875 5.21875 -4.859375 C 5.132812 -4.804688 5.046875 -4.734375 4.953125 -4.640625 C 4.796875 -4.492188 4.5625 -4.226562 4.25 -3.84375 L 3.40625 -2.796875 L 4.78125 -1 C 4.9375 -0.789062 5.082031 -0.625 5.21875 -0.5 C 5.351562 -0.382812 5.503906 -0.304688 5.671875 -0.265625 C 5.835938 -0.222656 5.921875 -0.148438 5.921875 -0.046875 C 5.921875 -0.015625 5.898438 0.015625 5.859375 0.046875 C 5.828125 0.078125 5.769531 0.09375 5.6875 0.09375 C 5.613281 0.09375 5.550781 0.0859375 5.5 0.078125 C 5.445312 0.0664062 5.394531 0.0625 5.34375 0.0625 C 5.0625 0.0078125 4.800781 -0.00390625 4.5625 0.015625 C 4.238281 0.0664062 3.976562 0.09375 3.78125 0.09375 C 3.582031 0.09375 3.484375 0.0351562 3.484375 -0.078125 C 3.484375 -0.203125 3.597656 -0.269531 3.828125 -0.28125 C 3.992188 -0.28125 4.078125 -0.335938 4.078125 -0.453125 C 4.078125 -0.546875 3.976562 -0.71875 3.78125 -0.96875 L 2.828125 -2.21875 L 2.046875 -1.21875 C 1.753906 -0.875 1.609375 -0.617188 1.609375 -0.453125 C 1.609375 -0.390625 1.640625 -0.34375 1.703125 -0.3125 C 1.765625 -0.289062 1.832031 -0.273438 1.90625 -0.265625 C 1.976562 -0.253906 2.046875 -0.234375 2.109375 -0.203125 C 2.171875 -0.179688 2.203125 -0.148438 2.203125 -0.109375 C 2.203125 0.0234375 2.085938 0.09375 1.859375 0.09375 L 1.015625 0.03125 Z M 0.34375 0.09375 "/></g></g></g><g fill="#3b435f" fill-opacity="1"><g transform="translate(13.922393, 23.688716)"><g><path d="M 0.5 2.015625 L 0.984375 2.0625 C 1.035156 2.0625 1.078125 2.046875 1.109375 2.015625 C 1.140625 1.992188 1.160156 1.941406 1.171875 1.859375 C 1.210938 1.703125 1.234375 1.363281 1.234375 0.84375 L 1.234375 -3.546875 C 1.234375 -3.898438 1.203125 -4.128906 1.140625 -4.234375 C 1.085938 -4.347656 1.023438 -4.425781 0.953125 -4.46875 C 0.890625 -4.507812 0.785156 -4.539062 0.640625 -4.5625 C 0.503906 -4.582031 0.4375 -4.640625 0.4375 -4.734375 C 0.4375 -4.828125 0.53125 -4.890625 0.71875 -4.921875 C 1.175781 -5.023438 1.492188 -5.125 1.671875 -5.21875 C 1.898438 -5.351562 2.054688 -5.421875 2.140625 -5.421875 C 2.234375 -5.421875 2.28125 -5.375 2.28125 -5.28125 C 2.28125 -5.238281 2.269531 -5.191406 2.25 -5.140625 C 2.226562 -5.097656 2.207031 -5.050781 2.1875 -5 C 2.164062 -4.894531 2.144531 -4.703125 2.125 -4.421875 C 2.59375 -5.085938 3.1875 -5.421875 3.90625 -5.421875 C 4.625 -5.421875 5.195312 -5.160156 5.625 -4.640625 C 6.039062 -4.140625 6.25 -3.488281 6.25 -2.6875 C 6.25 -1.90625 5.992188 -1.238281 5.484375 -0.6875 C 4.960938 -0.132812 4.320312 0.140625 3.5625 0.140625 C 3.007812 0.140625 2.53125 -0.00390625 2.125 -0.296875 L 2.125 0.84375 C 2.125 1.570312 2.15625 1.960938 2.21875 2.015625 C 2.238281 2.046875 2.269531 2.0625 2.3125 2.0625 L 3.078125 2 C 3.160156 2 3.222656 2.019531 3.265625 2.0625 C 3.316406 2.113281 3.34375 2.164062 3.34375 2.21875 C 3.34375 2.382812 3.203125 2.46875 2.921875 2.46875 L 1.703125 2.375 C 1.503906 2.375 1.316406 2.390625 1.140625 2.421875 C 0.972656 2.453125 0.816406 2.46875 0.671875 2.46875 C 0.523438 2.46875 0.421875 2.441406 0.359375 2.390625 C 0.304688 2.335938 0.28125 2.28125 0.28125 2.21875 C 0.28125 2.164062 0.300781 2.117188 0.34375 2.078125 C 0.382812 2.035156 0.4375 2.015625 0.5 2.015625 Z M 2.125 -1.265625 C 2.34375 -0.796875 2.710938 -0.488281 3.234375 -0.34375 C 3.398438 -0.300781 3.578125 -0.28125 3.765625 -0.28125 C 3.953125 -0.28125 4.140625 -0.320312 4.328125 -0.40625 C 4.523438 -0.488281 4.691406 -0.613281 4.828125 -0.78125 C 5.140625 -1.164062 5.296875 -1.695312 5.296875 -2.375 C 5.296875 -3.125 5.132812 -3.726562 4.8125 -4.1875 C 4.5 -4.613281 4.113281 -4.828125 3.65625 -4.828125 C 3.175781 -4.828125 2.757812 -4.617188 2.40625 -4.203125 C 2.289062 -4.078125 2.195312 -3.929688 2.125 -3.765625 Z M 2.125 -1.265625 "/></g></g></g><g fill="#3b435f" fill-opacity="1"><g transform="translate(20.63439, 23.688716)"><g><path d="M 0.671875 0.09375 C 0.410156 0.09375 0.28125 0.0195312 0.28125 -0.125 C 0.28125 -0.238281 0.351562 -0.296875 0.5 -0.296875 L 0.78125 -0.265625 C 0.875 -0.265625 0.945312 -0.28125 1 -0.3125 C 1.0625 -0.34375 1.109375 -0.410156 1.140625 -0.515625 C 1.203125 -0.710938 1.234375 -1.148438 1.234375 -1.828125 L 1.234375 -3.53125 C 1.234375 -3.925781 1.207031 -4.171875 1.15625 -4.265625 C 1.101562 -4.367188 1.046875 -4.4375 0.984375 -4.46875 C 0.921875 -4.507812 0.8125 -4.539062 0.65625 -4.5625 C 0.507812 -4.582031 0.4375 -4.640625 0.4375 -4.734375 C 0.4375 -4.828125 0.53125 -4.890625 0.71875 -4.921875 C 1.175781 -5.023438 1.492188 -5.125 1.671875 -5.21875 C 1.898438 -5.351562 2.054688 -5.421875 2.140625 -5.421875 C 2.234375 -5.421875 2.28125 -5.375 2.28125 -5.28125 C 2.28125 -5.238281 2.269531 -5.191406 2.25 -5.140625 C 2.226562 -5.097656 2.207031 -5.046875 2.1875 -4.984375 C 2.164062 -4.859375 2.144531 -4.613281 2.125 -4.25 C 2.457031 -4.8125 2.859375 -5.160156 3.328125 -5.296875 C 3.460938 -5.335938 3.613281 -5.359375 3.78125 -5.359375 C 3.957031 -5.359375 4.113281 -5.296875 4.25 -5.171875 C 4.382812 -5.054688 4.453125 -4.925781 4.453125 -4.78125 C 4.453125 -4.644531 4.4375 -4.546875 4.40625 -4.484375 C 4.375 -4.421875 4.332031 -4.363281 4.28125 -4.3125 C 4.1875 -4.21875 4.097656 -4.171875 4.015625 -4.171875 C 3.941406 -4.171875 3.882812 -4.1875 3.84375 -4.21875 C 3.800781 -4.257812 3.75 -4.335938 3.6875 -4.453125 C 3.59375 -4.640625 3.484375 -4.734375 3.359375 -4.734375 C 3.242188 -4.734375 3.132812 -4.707031 3.03125 -4.65625 C 2.925781 -4.601562 2.820312 -4.523438 2.71875 -4.421875 C 2.476562 -4.203125 2.28125 -3.90625 2.125 -3.53125 L 2.125 -1.828125 C 2.125 -1.097656 2.140625 -0.664062 2.171875 -0.53125 C 2.210938 -0.40625 2.265625 -0.328125 2.328125 -0.296875 C 2.390625 -0.273438 2.472656 -0.265625 2.578125 -0.265625 L 3.078125 -0.3125 C 3.160156 -0.3125 3.222656 -0.289062 3.265625 -0.25 C 3.316406 -0.21875 3.34375 -0.175781 3.34375 -0.125 C 3.34375 0.0195312 3.203125 0.09375 2.921875 0.09375 L 1.703125 0 C 1.503906 0 1.316406 0.015625 1.140625 0.046875 C 0.972656 0.078125 0.816406 0.09375 0.671875 0.09375 Z M 0.671875 0.09375 "/></g></g></g><g fill="#3b435f" fill-opacity="1"><g transform="translate(25.187525, 23.688716)"><g><path d="M 1.15625 -0.640625 C 0.9375 -0.890625 0.765625 -1.179688 0.640625 -1.515625 C 0.523438 -1.859375 0.46875 -2.234375 0.46875 -2.640625 C 0.46875 -3.054688 0.535156 -3.4375 0.671875 -3.78125 C 0.816406 -4.125 1.015625 -4.421875 1.265625 -4.671875 C 1.785156 -5.171875 2.421875 -5.421875 3.171875 -5.421875 C 3.804688 -5.421875 4.316406 -5.21875 4.703125 -4.8125 C 5.066406 -4.414062 5.25 -3.921875 5.25 -3.328125 C 5.25 -3.140625 5.222656 -3.007812 5.171875 -2.9375 C 5.117188 -2.863281 5.050781 -2.820312 4.96875 -2.8125 C 4.894531 -2.800781 4.789062 -2.789062 4.65625 -2.78125 C 4.53125 -2.769531 4.367188 -2.757812 4.171875 -2.75 C 3.984375 -2.738281 3.769531 -2.722656 3.53125 -2.703125 C 3.300781 -2.691406 3.0625 -2.679688 2.8125 -2.671875 C 2.25 -2.640625 1.796875 -2.601562 1.453125 -2.5625 C 1.535156 -1.53125 1.929688 -0.863281 2.640625 -0.5625 C 2.867188 -0.457031 3.113281 -0.40625 3.375 -0.40625 C 3.925781 -0.40625 4.363281 -0.566406 4.6875 -0.890625 C 4.820312 -1.035156 4.925781 -1.109375 5 -1.109375 C 5.132812 -1.109375 5.203125 -1.023438 5.203125 -0.859375 C 5.203125 -0.773438 5.144531 -0.671875 5.03125 -0.546875 C 4.914062 -0.429688 4.753906 -0.3125 4.546875 -0.1875 C 4.160156 0.03125 3.710938 0.140625 3.203125 0.140625 C 2.703125 0.140625 2.289062 0.0703125 1.96875 -0.0625 C 1.65625 -0.207031 1.382812 -0.398438 1.15625 -0.640625 Z M 1.453125 -3 C 3.242188 -3.082031 4.1875 -3.175781 4.28125 -3.28125 C 4.320312 -3.320312 4.34375 -3.4375 4.34375 -3.625 C 4.34375 -3.8125 4.304688 -3.992188 4.234375 -4.171875 C 4.160156 -4.347656 4.0625 -4.5 3.9375 -4.625 C 3.6875 -4.882812 3.375 -5.015625 3 -5.015625 C 2.570312 -5.015625 2.210938 -4.835938 1.921875 -4.484375 C 1.609375 -4.109375 1.453125 -3.613281 1.453125 -3 Z M 1.453125 -3 "/></g></g></g><g fill="#3b435f" fill-opacity="1"><g transform="translate(30.843058, 23.688716)"><g><path d="M 1.046875 -0.3125 C 0.867188 -0.4375 0.726562 -0.570312 0.625 -0.71875 C 0.53125 -0.875 0.484375 -0.992188 0.484375 -1.078125 C 0.484375 -1.171875 0.492188 -1.238281 0.515625 -1.28125 C 0.546875 -1.320312 0.582031 -1.363281 0.625 -1.40625 C 0.726562 -1.5 0.828125 -1.546875 0.921875 -1.546875 C 1.015625 -1.546875 1.082031 -1.519531 1.125 -1.46875 C 1.175781 -1.425781 1.222656 -1.34375 1.265625 -1.21875 C 1.316406 -1.09375 1.378906 -0.96875 1.453125 -0.84375 C 1.535156 -0.726562 1.640625 -0.628906 1.765625 -0.546875 C 2.003906 -0.359375 2.304688 -0.265625 2.671875 -0.265625 C 2.984375 -0.265625 3.253906 -0.34375 3.484375 -0.5 C 3.710938 -0.65625 3.828125 -0.851562 3.828125 -1.09375 C 3.828125 -1.34375 3.722656 -1.554688 3.515625 -1.734375 C 3.285156 -1.929688 2.945312 -2.117188 2.5 -2.296875 C 2.0625 -2.472656 1.75 -2.625 1.5625 -2.75 C 1.375 -2.875 1.222656 -3.003906 1.109375 -3.140625 C 0.878906 -3.398438 0.765625 -3.703125 0.765625 -4.046875 C 0.765625 -4.441406 0.941406 -4.769531 1.296875 -5.03125 C 1.648438 -5.289062 2.09375 -5.421875 2.625 -5.421875 C 3.09375 -5.421875 3.484375 -5.320312 3.796875 -5.125 C 4.078125 -4.945312 4.21875 -4.765625 4.21875 -4.578125 C 4.21875 -4.472656 4.164062 -4.382812 4.0625 -4.3125 C 3.957031 -4.25 3.859375 -4.21875 3.765625 -4.21875 C 3.679688 -4.21875 3.613281 -4.234375 3.5625 -4.265625 C 3.519531 -4.304688 3.445312 -4.40625 3.34375 -4.5625 C 3.144531 -4.863281 2.847656 -5.015625 2.453125 -5.015625 C 2.003906 -5.015625 1.707031 -4.878906 1.5625 -4.609375 C 1.519531 -4.535156 1.5 -4.453125 1.5 -4.359375 C 1.5 -4.273438 1.515625 -4.191406 1.546875 -4.109375 C 1.585938 -4.023438 1.660156 -3.9375 1.765625 -3.84375 C 1.972656 -3.664062 2.359375 -3.460938 2.921875 -3.234375 C 4.023438 -2.773438 4.578125 -2.191406 4.578125 -1.484375 C 4.578125 -1.003906 4.382812 -0.613281 4 -0.3125 C 3.601562 -0.0078125 3.097656 0.140625 2.484375 0.140625 C 1.941406 0.140625 1.460938 -0.0078125 1.046875 -0.3125 Z M 1.046875 -0.3125 "/></g></g></g><g fill="#3b435f" fill-opacity="1"><g transform="translate(35.878492, 23.688716)"><g><path d="M 1.046875 -0.3125 C 0.867188 -0.4375 0.726562 -0.570312 0.625 -0.71875 C 0.53125 -0.875 0.484375 -0.992188 0.484375 -1.078125 C 0.484375 -1.171875 0.492188 -1.238281 0.515625 -1.28125 C 0.546875 -1.320312 0.582031 -1.363281 0.625 -1.40625 C 0.726562 -1.5 0.828125 -1.546875 0.921875 -1.546875 C 1.015625 -1.546875 1.082031 -1.519531 1.125 -1.46875 C 1.175781 -1.425781 1.222656 -1.34375 1.265625 -1.21875 C 1.316406 -1.09375 1.378906 -0.96875 1.453125 -0.84375 C 1.535156 -0.726562 1.640625 -0.628906 1.765625 -0.546875 C 2.003906 -0.359375 2.304688 -0.265625 2.671875 -0.265625 C 2.984375 -0.265625 3.253906 -0.34375 3.484375 -0.5 C 3.710938 -0.65625 3.828125 -0.851562 3.828125 -1.09375 C 3.828125 -1.34375 3.722656 -1.554688 3.515625 -1.734375 C 3.285156 -1.929688 2.945312 -2.117188 2.5 -2.296875 C 2.0625 -2.472656 1.75 -2.625 1.5625 -2.75 C 1.375 -2.875 1.222656 -3.003906 1.109375 -3.140625 C 0.878906 -3.398438 0.765625 -3.703125 0.765625 -4.046875 C 0.765625 -4.441406 0.941406 -4.769531 1.296875 -5.03125 C 1.648438 -5.289062 2.09375 -5.421875 2.625 -5.421875 C 3.09375 -5.421875 3.484375 -5.320312 3.796875 -5.125 C 4.078125 -4.945312 4.21875 -4.765625 4.21875 -4.578125 C 4.21875 -4.472656 4.164062 -4.382812 4.0625 -4.3125 C 3.957031 -4.25 3.859375 -4.21875 3.765625 -4.21875 C 3.679688 -4.21875 3.613281 -4.234375 3.5625 -4.265625 C 3.519531 -4.304688 3.445312 -4.40625 3.34375 -4.5625 C 3.144531 -4.863281 2.847656 -5.015625 2.453125 -5.015625 C 2.003906 -5.015625 1.707031 -4.878906 1.5625 -4.609375 C 1.519531 -4.535156 1.5 -4.453125 1.5 -4.359375 C 1.5 -4.273438 1.515625 -4.191406 1.546875 -4.109375 C 1.585938 -4.023438 1.660156 -3.9375 1.765625 -3.84375 C 1.972656 -3.664062 2.359375 -3.460938 2.921875 -3.234375 C 4.023438 -2.773438 4.578125 -2.191406 4.578125 -1.484375 C 4.578125 -1.003906 4.382812 -0.613281 4 -0.3125 C 3.601562 -0.0078125 3.097656 0.140625 2.484375 0.140625 C 1.941406 0.140625 1.460938 -0.0078125 1.046875 -0.3125 Z M 1.046875 -0.3125 "/></g></g></g></g></g></g></g></svg>